<svg height="25" viewBox="0 0 69 25" width="69" xmlns="http://www.w3.org/2000/svg"><clipPath id="a"><path d="m0 0h69v25h-69z"/></clipPath><g clip-path="url(#a)"><path d="m0 0h69v25h-69z" fill="transparent"/><g fill="#3b4559"><path d="m542.789 2.775-2.524-2.525h-2.484l1.262 2.525zm0 0" transform="translate(-503.203 -.25)"/><path d="m200.4.25h-5.68v2.525h7.58zm0 0" transform="translate(-182.207 -.25)"/><path d="m0 353.267h61.946l1.752-2.525h-63.698zm0 0" transform="translate(0 -328.267)"/><path d="m61.385 233.918h-61.385v5.048h65.492l3.508-5.048zm0 0" transform="translate(0 -218.954)"/><path d="m110.971 78.137h-45.2l-1.888 7.573h54.662zm-41.131 5.049h-2.525v-2.525h2.525zm5.049 0h-2.525v-2.525h2.524zm5.049 0h-2.525v-2.525h2.524zm5.05 0h-2.526v-2.525h2.525zm5.049 0h-2.526v-2.525h2.525zm5.049 0h-2.526v-2.525h2.524zm5.05 0h-2.527v-2.525h2.525zm5.048 0h-2.525v-2.525h2.525zm5.049 0h-2.525v-2.525h2.525zm0 0" transform="translate(-59.742 -73.158)"/></g></g></svg>
