<svg height="36" viewBox="0 0 69 36" width="69" xmlns="http://www.w3.org/2000/svg">
  <g>
    <path d="m0 0h69v36h-69z" fill="transparent"/>
    <g fill="#3b4559">
      <path d="m61.985 10.1h-61.985v-10.1h69l-5.333 7.738h-.042l-1.64 2.36zm-5.028-5.343a1.5 1.5 0 1 0 1.49 1.5 1.5 1.5 0 0 0 -1.49-1.5zm-4.962 0a1.5 1.5 0 1 0 1.49 1.5 1.5 1.5 0 0 0 -1.49-1.5zm-4.962 0a1.5 1.5 0 1 0 1.49 1.5 1.5 1.5 0 0 0 -1.49-1.5z" transform="translate(.001 25.9)"/>
      <path d="m0 0h11v21h-11z" transform="translate(4.889 5.867)"/>
      <path d="m17 5h-17v-5h17zm-5-4v3h3v-3zm-5 0v3h3v-3zm-5 0v3h3v-3z" transform="translate(1.889)"/>
      <path d="m0 0h8v3h-8z" transform="translate(22.695 23.756)"/>
      <path d="m0 0h8v3h-8z" transform="translate(22.695 19.797)"/>
      <path d="m0 0h8v3h-8z" transform="translate(22.695 15.836)"/>
      <path d="m0 0h8v3h-8z" transform="translate(22.695 11.877)"/>
      <path d="m0 0h8v3h-8z" transform="translate(31.618 23.756)"/>
      <path d="m0 0h8v3h-8z" transform="translate(31.618 19.797)"/>
      <path d="m0 0h8v3h-8z" transform="translate(31.618 15.836)"/>
      <path d="m0 0h8v3h-8z" transform="translate(31.618 11.877)"/>
      <path d="m0 0h9v3h-9z" transform="translate(40.535 23.756)"/>
      <path d="m0 0h9v3h-9z" transform="translate(50.366 23.756)"/>
      <path d="m0 0h9v3h-9z" transform="translate(40.535 19.797)"/>
      <path d="m0 0h9v3h-9z" transform="translate(50.366 19.797)"/>
      <path d="m0 0h9v3h-9z" transform="translate(40.535 15.836)"/>
      <path d="m0 0h9v3h-9z" transform="translate(40.535 11.877)"/>
      <path d="m0 0h9v3h-9z" transform="translate(50.366 15.836)"/>
      <path d="m0 0h9v3h-9z" transform="translate(50.366 11.877)"/>
    </g>
  </g>
</svg>
