<svg xmlns="http://www.w3.org/2000/svg" width="55" height="28" viewBox="0 0 55 28">
  <defs>
    <clipPath id="clip-path">
      <rect id="Rectangle_6789" width="59.942" height="28.89" transform="translate(-5 -5)" fill="#3b4559"/>
    </clipPath>
    <clipPath id="clip-Plan_de_travail_2">
      <rect width="55" height="28"/>
    </clipPath>
  </defs>
  <g id="Plan_de_travail_2" clip-path="url(#clip-Plan_de_travail_2)">
    <rect width="55" height="28" fill="transparent"/>
    <g id="Groupe_5543" transform="translate(1 3.918)">
      <g id="Groupe_5526" transform="translate(0 0)" clip-path="url(#clip-path)">
        <path id="Tracé_1807" d="M30.875,2.028A4.808,4.808,0,0,0,28.007,0H8.242V3.436l2.3,1.282L8.264,12.574l-8.154.512L0,13.093l.07.3,29.41-1.842,6.309-3.338.1-.053ZM27.728,1.14l1.156,1.245L9.391,2.267V1.14Zm-4.72,3.578-1.378,5.543-7.91.466,1.808-6.008ZM33.8,7.74l-4.13,2.154-6.5.362,1.608-5.539H31.13Z" transform="translate(0 -1)" fill="#3b4559"/>
        <path id="Tracé_1808" d="M37.361,9.1,29.628,13.19.073,15.041,2,23.109h34.9c.038,0,.2.008.452.008,1.56,0,6.694-.222,9.5-3.024,3.24-3.239,4.974-11.4,5.046-11.747l.053-.258ZM6.8,16.907H4.755v1.483H6.147a.559.559,0,1,1,0,1.117H4.755V20.99H6.8a.559.559,0,0,1,0,1.119H4.2a.554.554,0,0,1-.559-.559v-5.2a.554.554,0,0,1,.559-.56H6.8a.559.559,0,0,1,0,1.118m4.987,1.3a.554.554,0,0,1-.559-.559.742.742,0,0,0-1.483,0v2.6a.742.742,0,0,0,1.483,0,.559.559,0,1,1,1.118,0,1.86,1.86,0,0,1-3.719,0v-2.6a1.86,1.86,0,0,1,3.719,0,.553.553,0,0,1-.559.559M13.83,20.25v-2.6a1.86,1.86,0,0,1,3.719,0v2.6a1.86,1.86,0,0,1-3.719,0m7.931.74a.559.559,0,0,1,0,1.119H19.594a.554.554,0,0,1-.56-.559v-5.2a.559.559,0,1,1,1.118,0V20.99Zm5.2-4.083H24.923v1.483h1.392a.559.559,0,1,1,0,1.117H24.923V20.99h2.042a.559.559,0,0,1,0,1.119h-2.6a.554.554,0,0,1-.56-.559v-5.2a.554.554,0,0,1,.56-.56h2.6a.553.553,0,0,1,.559.56.559.559,0,0,1-.559.558" transform="translate(-0.011 -1.228)" fill="#3b4559"/>
        <path id="Tracé_1809" d="M18.344,22.781A.783.783,0,0,0,19.125,22V19.031a.782.782,0,1,0-1.563,0V22a.783.783,0,0,0,.782.782" transform="translate(-2.666 -2.77)" fill="#3b4559"/>
      </g>
    </g>
  </g>
</svg>
