<svg height="36" viewBox="0 0 34 36" width="34" xmlns="http://www.w3.org/2000/svg" xmlns:xlink="http://www.w3.org/1999/xlink"><clipPath id="a"><path d="m0 0h34v36h-34z"/></clipPath><g clip-path="url(#a)"><path d="m0 0h34v36h-34z" fill="transparent"/><path d="m3.395 30.752h32.21a.9.9 0 0 1 .716 1.435l-3.758 5.021a1.788 1.788 0 0 1 -1.432.717h-23.263a1.788 1.788 0 0 1 -1.432-.717l-3.757-5.021a.9.9 0 0 1 .716-1.435zm7.446-7.173h10.448v-13.088zm14.027-20.758v22.551a1.791 1.791 0 0 1 -1.789 1.793h-17.823a.9.9 0 0 1 -.7-1.456l18.72-23.448a.894.894 0 0 1 1.593.56z" fill="#3b4559" transform="translate(-2.5 -1.926)"/></g></svg>