<svg height="32" viewBox="0 0 51 32" width="51" xmlns="http://www.w3.org/2000/svg"><clipPath id="a"><path d="m0 0h51v32h-51z"/></clipPath><g clip-path="url(#a)"><path d="m0 0h51v32h-51z" fill="transparent"/><g fill="#3b4559"><path d="m152.766 120.266h28.018v4.519h-28.018zm0 0" transform="translate(-135.519 -107.075)"/><path d="m51.766 61.266h9.829v3.05h-9.829zm0 0" transform="translate(-45.917 -54.551)"/><path d="m51.766 102.266h9.829v6.553h-9.829zm0 0" transform="translate(-45.917 -91.078)"/><path d="m5.066 174.266h-5.066l1.438 9.716h43.038l6.524-9.716zm0 0" transform="translate(0 -155.371)"/><path d="m81.766.266h2.934v5.31h-2.934zm0 0" transform="translate(-72.53 -.266)"/><path d="m15.07 276.074h40.235l1.237-1.808h-41.742zm0 0" transform="translate(-13.125 -244.074)"/></g></g></svg>
